<svg width="7" height="4" viewBox="0 0 7 4" xmlns="http://www.w3.org/2000/svg">
<g opacity="0.4">
<path fill-rule="evenodd" clip-rule="evenodd" d="M4.03447 0.253496C3.8722 0.0898395 3.65794 2.7968e-07 3.42826 2.9976e-07C3.19914 3.1979e-07 2.98374 0.0898396 2.82262 0.253496L0.167524 3.01277C-0.0558768 3.2388 -0.0558768 3.60445 0.167524 3.83048C0.390353 4.05651 0.752023 4.05651 0.975423 3.83048L3.42826 1.27549L5.88167 3.83048C6.10507 4.05651 6.46617 4.05651 6.68957 3.83048C6.91297 3.60445 6.91297 3.2388 6.68957 3.01277L4.03447 0.253496Z"/>
<path fill-rule="evenodd" clip-rule="evenodd" d="M4.03447 0.253496C3.8722 0.0898395 3.65794 2.7968e-07 3.42826 2.9976e-07C3.19914 3.1979e-07 2.98374 0.0898396 2.82262 0.253496L0.167524 3.01277C-0.0558768 3.2388 -0.0558768 3.60445 0.167524 3.83048C0.390353 4.05651 0.752023 4.05651 0.975423 3.83048L3.42826 1.27549L5.88167 3.83048C6.10507 4.05651 6.46617 4.05651 6.68957 3.83048C6.91297 3.60445 6.91297 3.2388 6.68957 3.01277L4.03447 0.253496Z"/>
</g>
</svg>
