<svg width="7" height="4" viewBox="0 0 7 4" xmlns="http://www.w3.org/2000/svg">
<g opacity="0.4">
<path fill-rule="evenodd" clip-rule="evenodd" d="M2.82332 3.7465C2.98558 3.91016 3.19984 4 3.42953 4C3.65864 4 3.87404 3.91016 4.03517 3.7465L6.69026 0.987232C6.91366 0.761203 6.91366 0.395551 6.69026 0.169522C6.46744 -0.0565073 6.10577 -0.0565073 5.88236 0.169522L3.42953 2.72451L0.976121 0.169522C0.75272 -0.0565073 0.391623 -0.0565073 0.168222 0.169522C-0.0551788 0.395551 -0.0551788 0.761203 0.168222 0.987232L2.82332 3.7465Z"/>
<path fill-rule="evenodd" clip-rule="evenodd" d="M2.82332 3.7465C2.98558 3.91016 3.19984 4 3.42953 4C3.65864 4 3.87404 3.91016 4.03517 3.7465L6.69026 0.987232C6.91366 0.761203 6.91366 0.395551 6.69026 0.169522C6.46744 -0.0565073 6.10577 -0.0565073 5.88236 0.169522L3.42953 2.72451L0.976121 0.169522C0.75272 -0.0565073 0.391623 -0.0565073 0.168222 0.169522C-0.0551788 0.395551 -0.0551788 0.761203 0.168222 0.987232L2.82332 3.7465Z"/>
</g>
</svg>
