<svg width="80" height="80" viewBox="0 0 80 80" fill="none" xmlns="http://www.w3.org/2000/svg">
<path d="M68.5173 21.2099V20.0926H70.4425V11.5765H63.0491V20.0926H64.1655V21.2099H63.0491H61.9326H57.2619V20.0926H61.9326V11.5765H60.2808H54.243H51.7709V20.0926H53.4228V21.2099H51.7709V29.7032H50.6545V28.8824H36.403V27.7651H50.6545V11.5765H41.894H33.6575H30.388V27.7537H33.1334V28.871H30.388H29.2715H26.7994V25.8271H29.2715V11.5765H22.4135H14.177H9.50626V27.7537H21.8553H22.9717H23.8147V28.871H22.9717V29.6918H21.8553V28.871H9.51765V39.3024H21.8667V33.5338H22.9831V39.3024V40.4196H9.51765V60.188H14.1884H22.4249H30.3538V37.4099H27.0843V36.2927H30.3538H31.4702H50.6545V33.5452H51.7709V36.2927H52.8873V37.4099H51.7709H50.6545H31.4702V60.188H33.6689H41.9054H53.4342H58.3783V60.7352V61.0088V62.6961H53.4342H48.2166V69.525H66.0566V62.6961H62.2174V60.188H70.4539V37.4099H58.6403V36.2927H70.4425V25.8613H72.9488V62.6961H70.4425H66.6034V69.525V70.0722H66.0566H48.2052H47.6584V69.525V62.6961H41.894H33.6575H22.4021H14.177H9.50626H7V60.188V11.5765V9.06842H9.50626H14.177H22.4135H33.6689H41.9054H54.2544H60.2922H70.4425H72.9488V11.5765V21.7571H70.4425V21.2099H68.5173Z" fill="#29313C"/>
<path fill-rule="evenodd" clip-rule="evenodd" d="M70.5451 37.3983H67.3211H67.2527V46.7355H67.3211H67.3895V46.8723H70.4084V46.7355H70.5451V37.3983ZM70.4084 46.7355H67.3895V37.5351H70.4084V46.7355ZM70.4084 49.8934H67.3895V50.0302H67.2527V54.4588H70.5451V50.0302H70.4084V49.8934ZM70.4084 50.0302H67.3895V54.322H70.4084V50.0302ZM69.1666 49.0612C69.1666 48.9244 69.2236 48.8104 69.3033 48.7192C69.3945 48.628 69.5084 48.5824 69.6451 48.5824C69.7818 48.5824 69.8957 48.6394 69.9868 48.7192C70.078 48.8104 70.1236 48.9244 70.1236 49.0612C70.1236 49.198 70.0666 49.312 69.9868 49.4032C69.8957 49.4944 69.7818 49.54 69.6451 49.54C69.5084 49.54 69.3945 49.483 69.3033 49.4032C69.2236 49.312 69.1666 49.198 69.1666 49.0612ZM69.3033 49.0612C69.3033 48.97 69.3489 48.8788 69.4059 48.8218C69.4628 48.7534 69.554 48.7192 69.6451 48.7192C69.7362 48.7192 69.8274 48.7648 69.8843 48.8218C69.9527 48.8788 69.9869 48.97 69.9869 49.0612C69.9869 49.1524 69.9413 49.2436 69.8843 49.3006C69.8274 49.369 69.7362 49.4032 69.6451 49.4032C69.554 49.4032 69.4628 49.3576 69.4059 49.3006C69.3375 49.2436 69.3033 49.1524 69.3033 49.0612ZM67.6743 49.0612C67.6743 48.9244 67.7312 48.8104 67.811 48.7192C67.9021 48.628 68.016 48.5824 68.1527 48.5824C68.2894 48.5824 68.4033 48.6394 68.4945 48.7192C68.5856 48.8104 68.6312 48.9244 68.6312 49.0612C68.6312 49.198 68.5742 49.312 68.4945 49.4032C68.4033 49.4944 68.2894 49.54 68.1527 49.54C68.016 49.54 67.9021 49.483 67.811 49.4032C67.7312 49.312 67.6743 49.198 67.6743 49.0612ZM67.811 49.0612C67.811 48.97 67.8565 48.8788 67.9135 48.8218C67.9705 48.7534 68.0616 48.7192 68.1527 48.7192C68.2439 48.7192 68.335 48.7648 68.392 48.8218C68.4603 48.8788 68.4945 48.97 68.4945 49.0612C68.4945 49.1524 68.4489 49.2436 68.392 49.3006C68.335 49.369 68.2439 49.4032 68.1527 49.4032C68.0616 49.4032 67.9705 49.3576 67.9135 49.3006C67.8451 49.2436 67.811 49.1524 67.811 49.0612ZM69.1666 47.6931C69.1666 47.5563 69.2236 47.4423 69.3033 47.3511C69.3945 47.2599 69.5084 47.2143 69.6451 47.2143C69.7818 47.2143 69.8957 47.2713 69.9868 47.3511C70.078 47.4423 70.1236 47.5563 70.1236 47.6931C70.1236 47.8299 70.0666 47.9439 69.9868 48.0351C69.8957 48.1263 69.7818 48.1719 69.6451 48.1719C69.5084 48.1719 69.3945 48.1149 69.3033 48.0351C69.2236 47.9439 69.1666 47.8299 69.1666 47.6931ZM69.3033 47.6931C69.3033 47.6019 69.3489 47.5107 69.4059 47.4537C69.4628 47.3853 69.554 47.3511 69.6451 47.3511C69.7362 47.3511 69.8274 47.3967 69.8843 47.4537C69.9527 47.5107 69.9869 47.6019 69.9869 47.6931C69.9869 47.7843 69.9413 47.8755 69.8843 47.9325C69.8274 48.0009 69.7362 48.0351 69.6451 48.0351C69.554 48.0351 69.4628 47.9895 69.4059 47.9325C69.3375 47.8755 69.3033 47.7843 69.3033 47.6931ZM67.6743 47.6931C67.6743 47.5563 67.7312 47.4423 67.811 47.3511C67.9021 47.2599 68.016 47.2143 68.1527 47.2143C68.2894 47.2143 68.4033 47.2713 68.4945 47.3511C68.5856 47.4423 68.6312 47.5563 68.6312 47.6931C68.6312 47.8299 68.5742 47.9439 68.4945 48.0351C68.4033 48.1263 68.2894 48.1719 68.1527 48.1719C68.016 48.1719 67.9021 48.1149 67.811 48.0351C67.7312 47.9439 67.6743 47.8299 67.6743 47.6931ZM67.811 47.6931C67.811 47.6019 67.8565 47.5107 67.9135 47.4537C67.9705 47.3853 68.0616 47.3511 68.1527 47.3511C68.2439 47.3511 68.335 47.3967 68.392 47.4537C68.4603 47.5107 68.4945 47.6019 68.4945 47.6931C68.4945 47.7843 68.4489 47.8755 68.392 47.9325C68.335 48.0009 68.2439 48.0351 68.1527 48.0351C68.0616 48.0351 67.9705 47.9895 67.9135 47.9325C67.8451 47.8755 67.811 47.7843 67.811 47.6931Z" fill="#29313C"/>
<path fill-rule="evenodd" clip-rule="evenodd" d="M61.9355 15.1216H59.3723C59.0989 15.1216 58.8369 15.0076 58.6546 14.8252C58.4723 14.6428 58.3584 14.392 58.3584 14.107C58.3584 13.8334 58.4723 13.5712 58.6546 13.3888C58.8369 13.2064 59.0875 13.0924 59.3723 13.0924H61.9355V15.0532V15.1216ZM58.7457 13.4686C58.5862 13.6282 58.4837 13.8562 58.4837 14.107C58.4837 14.3578 58.5862 14.5858 58.7457 14.7454C58.9052 14.905 59.1331 15.0076 59.3837 15.0076L60.8077 15.0076L61.833 15.0076V13.2064H59.3837C59.1331 13.2064 58.9052 13.309 58.7457 13.4686ZM60.8077 15.0076H60.9216V13.2064H60.8077V15.0076Z" fill="#29313C"/>
<path fill-rule="evenodd" clip-rule="evenodd" d="M61.9355 15.9022H61.0014C60.5343 15.9022 60.1128 16.0846 59.8052 16.3924C59.4976 16.6888 59.304 17.0992 59.304 17.5553C59.304 18.0113 59.4976 18.4217 59.8052 18.7181C60.1128 19.0145 60.5343 19.1969 61.0014 19.1969H61.9355V15.9022ZM61.0014 19.0601C60.5685 19.0601 60.1811 18.8891 59.8963 18.6155C59.6115 18.3419 59.4407 17.9657 59.4407 17.5325C59.4407 17.1107 59.6115 16.7344 59.8963 16.4608C60.1811 16.1872 60.5685 16.0162 61.0014 16.0162H61.8102V19.0601H61.0014ZM61.2178 18.8435H60.9558C60.6027 18.8435 60.2837 18.7067 60.0444 18.4787C59.8166 18.2507 59.6685 17.9429 59.6685 17.6009V17.5097C59.6685 17.1677 59.8166 16.8598 60.0444 16.6318C60.2723 16.4038 60.5913 16.267 60.9558 16.267H61.2178V18.7865V18.8435ZM59.8052 17.5097C59.8052 17.2019 59.9419 16.9282 60.147 16.723C60.352 16.5178 60.6368 16.3924 60.9558 16.3924H61.0811V18.7181H60.9558C60.6482 18.7181 60.352 18.5927 60.147 18.3875C59.9305 18.1937 59.8052 17.9087 59.8052 17.6009V17.5097ZM60.8679 17.5682C60.8679 17.6819 60.7876 17.7627 60.6794 17.7627C60.5711 17.7627 60.4806 17.6708 60.4806 17.5682C60.4806 17.4657 60.5704 17.3816 60.6794 17.3816C60.7883 17.3816 60.8679 17.4546 60.8679 17.5682ZM60.6793 17.6737C60.6179 17.6737 60.5717 17.6334 60.5717 17.5682C60.5717 17.5031 60.6305 17.4644 60.6793 17.4644C60.7282 17.4644 60.787 17.501 60.787 17.5682C60.787 17.6354 60.7408 17.6737 60.6793 17.6737Z" fill="#29313C"/>
<path fill-rule="evenodd" clip-rule="evenodd" d="M21.0009 39.3138V38.379C21.0009 37.9115 20.8186 37.4897 20.511 37.1819C20.2148 36.8741 19.8047 36.6803 19.349 36.6803C18.8933 36.6803 18.4832 36.8741 18.187 37.1819C17.8908 37.4897 17.7086 37.9115 17.7086 38.379V39.3138H21.0009ZM17.8453 38.379C17.8453 37.9457 18.0161 37.5581 18.2896 37.2731C18.563 36.9881 18.9389 36.8171 19.3718 36.8171C19.7933 36.8171 20.1692 36.9881 20.4427 37.2731C20.7161 37.5581 20.8869 37.9457 20.8869 38.379V39.1884H17.8453V38.379ZM18.0617 38.5956V38.3334C18.0617 37.9799 18.1984 37.6607 18.4263 37.4213C18.6541 37.1933 18.9617 37.0451 19.3034 37.0451H19.3946C19.7363 37.0451 20.0439 37.1933 20.2718 37.4213C20.4996 37.6493 20.6363 37.9685 20.6363 38.3334V38.5956H18.1187H18.0617ZM19.3946 37.1819C19.7022 37.1819 19.9756 37.3187 20.1806 37.5239C20.3857 37.7291 20.511 38.0141 20.511 38.3334V38.4588H18.187V38.3334C18.187 38.0255 18.3123 37.7291 18.5174 37.5239C18.7111 37.3073 18.9959 37.1819 19.3035 37.1819H19.3946ZM19.3361 38.2454C19.2225 38.2454 19.1418 38.165 19.1418 38.0567C19.1418 37.9484 19.2336 37.8578 19.3361 37.8578C19.4385 37.8578 19.5226 37.9477 19.5226 38.0567C19.5226 38.1657 19.4496 38.2454 19.3361 38.2454ZM19.2306 38.0567C19.2306 37.9953 19.2709 37.949 19.3361 37.949C19.4012 37.949 19.4398 38.0078 19.4398 38.0567C19.4398 38.1056 19.4032 38.1644 19.3361 38.1644C19.2689 38.1644 19.2306 38.1182 19.2306 38.0567Z" fill="#29313C"/>
<path fill-rule="evenodd" clip-rule="evenodd" d="M12.81 28.8824H9.51764V28.928V35.9735H12.81V28.8824ZM12.7074 28.9736V35.8823H9.60878V28.9736H12.7074ZM9.87079 34.4116V30.4671C9.87079 30.1136 10.0075 29.8286 10.2239 29.6234C10.4632 29.4068 10.7822 29.2928 11.1467 29.2928C11.5113 29.2928 11.8416 29.4068 12.0695 29.6234C12.2859 29.8286 12.4226 30.1136 12.4226 30.4671V34.4116C12.4226 34.765 12.2859 35.05 12.0695 35.2552C11.8302 35.4718 11.5113 35.5858 11.1467 35.5858C10.7822 35.5858 10.4518 35.4718 10.2239 35.2552C10.0075 35.05 9.87079 34.765 9.87079 34.4116ZM12.3429 34.4116C12.3429 34.7422 12.2176 35.0044 12.0125 35.1868C11.7961 35.3806 11.4885 35.4832 11.1467 35.4946C10.8049 35.4946 10.4974 35.3806 10.2809 35.1868C10.0759 34.993 9.95054 34.7422 9.95054 34.4116V30.467C9.95054 30.1364 10.0759 29.8742 10.2809 29.6918C10.4974 29.4866 10.8049 29.384 11.1467 29.384C11.4885 29.384 11.7961 29.498 12.0125 29.6918C12.2176 29.8856 12.3429 30.1364 12.3429 30.467V34.4116ZM11.1402 34.8607C11.0266 34.8607 10.9459 34.7803 10.9459 34.672C10.9459 34.5637 11.0377 34.473 11.1402 34.473C11.2427 34.473 11.3267 34.563 11.3267 34.672C11.3267 34.781 11.2537 34.8607 11.1402 34.8607ZM11.0348 34.672C11.0348 34.6105 11.0751 34.5642 11.1402 34.5642C11.2053 34.5642 11.2439 34.6231 11.2439 34.672C11.2439 34.7209 11.2073 34.7797 11.1402 34.7797C11.073 34.7797 11.0348 34.7334 11.0348 34.672Z" fill="#29313C"/>
<path d="M53.4797 60.245H58.31V62.6391H53.4797V60.245Z" fill="white"/>
<path fill-rule="evenodd" clip-rule="evenodd" d="M53.4114 62.6961V60.188H58.3555V62.6961H53.4114ZM53.5253 62.5821H58.2416V60.302H53.5253V62.5821Z" fill="#171924"/>
<rect x="53.4228" y="60.9404" width="4.94416" height="0.136803" fill="#171924"/>
<path d="M33.7258 60.245H41.8484V62.6391H33.7258V60.245Z" fill="white"/>
<path fill-rule="evenodd" clip-rule="evenodd" d="M33.6575 62.6961V60.188H41.894V62.6961H33.6575ZM33.7714 62.5821H41.78V60.302H33.7714V62.5821Z" fill="#171924"/>
<rect x="33.6689" y="60.9404" width="8.23647" height="0.136803" fill="#171924"/>
<path d="M14.2339 60.245H22.3565V62.6391H14.2339V60.245Z" fill="white"/>
<path fill-rule="evenodd" clip-rule="evenodd" d="M14.177 62.6961V60.188H22.4135V62.6961H14.177ZM14.2909 62.5821H22.2996V60.302H14.2909V62.5821Z" fill="#171924"/>
<rect x="14.177" y="60.9404" width="8.23648" height="0.136803" fill="#171924"/>
<path d="M14.2339 9.12543H22.3565V11.5195H14.2339V9.12543Z" fill="white"/>
<path fill-rule="evenodd" clip-rule="evenodd" d="M14.177 11.5765V9.06842H22.4135V11.5765H14.177ZM14.2909 11.4625H22.2996V9.18242H14.2909V11.4625Z" fill="#171924"/>
<rect x="14.177" y="10.6873" width="8.23648" height="0.136805" fill="#171924"/>
<path d="M33.7258 9.12543H41.8484V11.5195H33.7258V9.12543Z" fill="white"/>
<path fill-rule="evenodd" clip-rule="evenodd" d="M33.6575 11.5765V9.06842H41.894V11.5765H33.6575ZM33.7714 11.4625H41.78V9.18242H33.7714V11.4625Z" fill="#171924"/>
<rect x="33.6689" y="10.6873" width="8.23647" height="0.136805" fill="#171924"/>
<path d="M54.2999 9.12543H60.2238V11.5195H54.2999L54.2999 9.12543Z" fill="white"/>
<path fill-rule="evenodd" clip-rule="evenodd" d="M54.243 11.5765V9.06842H60.2808V11.5765H54.243ZM54.3569 11.4625H60.1669V9.18242H54.3569V11.4625Z" fill="#171924"/>
<rect x="54.243" y="10.6873" width="6.03781" height="0.136805" fill="#171924"/>
<path opacity="0.2" d="M15.2714 67.4155C16.2242 68.8668 15.6715 70.7458 14.0455 71.5856C12.4239 72.4377 10.3237 71.9424 9.3834 70.4854C8.42661 69.0279 8.984 67.1608 10.6129 66.3188C12.2344 65.4675 14.3325 65.9606 15.2714 67.4155Z" fill="#0B1739" fill-opacity="0.2"/>
<path fill-rule="evenodd" clip-rule="evenodd" d="M12.6977 69.6144L9.94395 70.0596L11.7639 68.1841L14.5105 67.728L12.6977 69.6144ZM11.9731 68.508L10.6571 69.7138L12.5031 69.2941L11.9731 68.508Z" fill="#FF0000"/>
<path fill-rule="evenodd" clip-rule="evenodd" d="M12.6977 69.6144L9.94395 70.0596L11.7639 68.1841L14.5105 67.728L12.6977 69.6144ZM11.9731 68.508L10.6571 69.7138L12.5031 69.2941L11.9731 68.508Z" fill="#0B1739"/>
<path fill-rule="evenodd" clip-rule="evenodd" d="M7.72169 72.0411C7.58533 72.0411 7.46215 72.0147 7.35216 71.9619C7.24217 71.9091 7.15598 71.8361 7.09359 71.743C7.0312 71.6499 7 71.5448 7 71.4278C7 71.3108 7.03152 71.2058 7.09455 71.1127C7.15759 71.0195 7.2441 70.9466 7.35409 70.8938C7.46408 70.8409 7.58726 70.8145 7.72362 70.8145C7.83426 70.8145 7.93524 70.8316 8.02658 70.8657C8.11792 70.8997 8.1951 70.9491 8.25814 71.0139L8.09605 71.1484C7.99828 71.0553 7.878 71.0087 7.7352 71.0087C7.64258 71.0087 7.5596 71.0266 7.48628 71.0624C7.41295 71.0982 7.3557 71.1479 7.31454 71.2115C7.27337 71.2751 7.25279 71.3472 7.25279 71.4278C7.25279 71.5085 7.27337 71.5806 7.31454 71.6442C7.3557 71.7078 7.41295 71.7575 7.48628 71.7932C7.5596 71.829 7.64258 71.8469 7.7352 71.8469C7.878 71.8469 7.99828 71.7998 8.09605 71.7055L8.25814 71.8418C8.1951 71.9065 8.1176 71.9559 8.02562 71.99C7.93363 72.0241 7.83233 72.0411 7.72169 72.0411Z" fill="#FF0000"/>
<path fill-rule="evenodd" clip-rule="evenodd" d="M7.72169 72.0411C7.58533 72.0411 7.46215 72.0147 7.35216 71.9619C7.24217 71.9091 7.15598 71.8361 7.09359 71.743C7.0312 71.6499 7 71.5448 7 71.4278C7 71.3108 7.03152 71.2058 7.09455 71.1127C7.15759 71.0195 7.2441 70.9466 7.35409 70.8938C7.46408 70.8409 7.58726 70.8145 7.72362 70.8145C7.83426 70.8145 7.93524 70.8316 8.02658 70.8657C8.11792 70.8997 8.1951 70.9491 8.25814 71.0139L8.09605 71.1484C7.99828 71.0553 7.878 71.0087 7.7352 71.0087C7.64258 71.0087 7.5596 71.0266 7.48628 71.0624C7.41295 71.0982 7.3557 71.1479 7.31454 71.2115C7.27337 71.2751 7.25279 71.3472 7.25279 71.4278C7.25279 71.5085 7.27337 71.5806 7.31454 71.6442C7.3557 71.7078 7.41295 71.7575 7.48628 71.7932C7.5596 71.829 7.64258 71.8469 7.7352 71.8469C7.878 71.8469 7.99828 71.7998 8.09605 71.7055L8.25814 71.8418C8.1951 71.9065 8.1176 71.9559 8.02562 71.99C7.93363 72.0241 7.83233 72.0411 7.72169 72.0411Z" fill="#0B1739"/>
<path fill-rule="evenodd" clip-rule="evenodd" d="M17.4301 65.9032C17.5626 65.9032 17.6819 65.9296 17.788 65.9824C17.8941 66.0353 17.9774 66.1082 18.0379 66.2014C18.0984 66.2945 18.1286 66.3995 18.1286 66.5165C18.1286 66.6335 18.0984 66.7385 18.0379 66.8317C17.9774 66.9248 17.8941 66.9978 17.788 67.0506C17.6819 67.1034 17.5626 67.1298 17.4301 67.1298C17.3091 67.1298 17.1988 67.1076 17.0991 67.0633C16.9994 67.0191 16.9177 66.9572 16.8541 66.8777C16.7904 66.7982 16.7508 66.7079 16.7354 66.6068H16.5231V67.1128H16.2761V65.9203H16.5231V66.4092H16.7392C16.7573 66.3104 16.7981 66.2226 16.8618 66.146C16.9255 66.0693 17.0065 66.0097 17.1049 65.9671C17.2033 65.9245 17.3117 65.9032 17.4301 65.9032ZM17.4301 66.9356C17.5137 66.9356 17.5896 66.918 17.6578 66.8828C17.726 66.8476 17.7794 66.7982 17.818 66.7346C17.8566 66.671 17.8759 66.5983 17.8759 66.5165C17.8759 66.4347 17.8566 66.3621 17.818 66.2985C17.7794 66.2349 17.726 66.1855 17.6578 66.1502C17.5896 66.115 17.5137 66.0974 17.4301 66.0974C17.3465 66.0974 17.2709 66.115 17.2034 66.1502C17.1358 66.1855 17.0824 66.2349 17.0432 66.2985C17.004 66.3621 16.9844 66.4347 16.9844 66.5165C16.9844 66.5983 17.004 66.671 17.0432 66.7346C17.0824 66.7982 17.1358 66.8476 17.2034 66.8828C17.2709 66.918 17.3465 66.9356 17.4301 66.9356Z" fill="#FF0000"/>
<path fill-rule="evenodd" clip-rule="evenodd" d="M17.4301 65.9032C17.5626 65.9032 17.6819 65.9296 17.788 65.9824C17.8941 66.0353 17.9774 66.1082 18.0379 66.2014C18.0984 66.2945 18.1286 66.3995 18.1286 66.5165C18.1286 66.6335 18.0984 66.7385 18.0379 66.8317C17.9774 66.9248 17.8941 66.9978 17.788 67.0506C17.6819 67.1034 17.5626 67.1298 17.4301 67.1298C17.3091 67.1298 17.1988 67.1076 17.0991 67.0633C16.9994 67.0191 16.9177 66.9572 16.8541 66.8777C16.7904 66.7982 16.7508 66.7079 16.7354 66.6068H16.5231V67.1128H16.2761V65.9203H16.5231V66.4092H16.7392C16.7573 66.3104 16.7981 66.2226 16.8618 66.146C16.9255 66.0693 17.0065 66.0097 17.1049 65.9671C17.2033 65.9245 17.3117 65.9032 17.4301 65.9032ZM17.4301 66.9356C17.5137 66.9356 17.5896 66.918 17.6578 66.8828C17.726 66.8476 17.7794 66.7982 17.818 66.7346C17.8566 66.671 17.8759 66.5983 17.8759 66.5165C17.8759 66.4347 17.8566 66.3621 17.818 66.2985C17.7794 66.2349 17.726 66.1855 17.6578 66.1502C17.5896 66.115 17.5137 66.0974 17.4301 66.0974C17.3465 66.0974 17.2709 66.115 17.2034 66.1502C17.1358 66.1855 17.0824 66.2349 17.0432 66.2985C17.004 66.3621 16.9844 66.4347 16.9844 66.5165C16.9844 66.5983 17.004 66.671 17.0432 66.7346C17.0824 66.7982 17.1358 66.8476 17.2034 66.8828C17.2709 66.918 17.3465 66.9356 17.4301 66.9356Z" fill="#0B1739"/>
<path d="M60.3117 66.8142H61.2153V66.9869L60.7073 68.2198H60.5025L61.0145 66.9869H60.3117V66.8142ZM61.4406 68.009H61.6455L61.4868 68.521H61.3443L61.4406 68.009ZM62.416 68.2359C62.3424 68.2359 62.2755 68.2238 62.2152 68.1997C62.1563 68.1756 62.1061 68.1375 62.0646 68.0853C62.0231 68.0317 61.991 67.9635 61.9683 67.8805C61.9455 67.7961 61.9341 67.6944 61.9341 67.5752V67.4588C61.9341 67.341 61.9455 67.2406 61.9683 67.1576C61.991 67.0732 62.0231 67.005 62.0646 66.9527C62.1075 66.8992 62.1583 66.8604 62.2172 66.8363C62.2775 66.8108 62.3438 66.7981 62.416 66.7981C62.4897 66.7981 62.5559 66.8102 62.6148 66.8343C62.6751 66.8584 62.726 66.8972 62.7674 66.9507C62.8089 67.003 62.8411 67.0712 62.8638 67.1556C62.8866 67.2386 62.898 67.3396 62.898 67.4588V67.5752C62.898 67.693 62.8866 67.7941 62.8638 67.8785C62.8411 67.9615 62.8083 68.0297 62.7654 68.0833C62.7239 68.1355 62.6731 68.1743 62.6128 68.1997C62.5539 68.2238 62.4883 68.2359 62.416 68.2359ZM62.416 68.0552C62.4602 68.0552 62.4997 68.0478 62.5345 68.0331C62.5707 68.017 62.6008 67.9909 62.6249 67.9548C62.649 67.9173 62.6677 67.8677 62.6811 67.8062C62.6945 67.7446 62.7012 67.6676 62.7012 67.5752V67.4588C62.7012 67.3664 62.6945 67.2901 62.6811 67.2299C62.6677 67.1683 62.6483 67.1187 62.6229 67.0813C62.5988 67.0438 62.5687 67.0177 62.5325 67.003C62.4977 66.9869 62.4589 66.9789 62.416 66.9789C62.3719 66.9789 62.3317 66.9869 62.2956 67.003C62.2608 67.0177 62.2313 67.0438 62.2072 67.0813C62.1831 67.1174 62.1644 67.1663 62.151 67.2279C62.1376 67.2894 62.1309 67.3664 62.1309 67.4588V67.5752C62.1309 67.6676 62.1376 67.7446 62.151 67.8062C62.1644 67.8664 62.1831 67.9153 62.2072 67.9527C62.2326 67.9902 62.2628 68.017 62.2976 68.0331C62.3337 68.0478 62.3732 68.0552 62.416 68.0552ZM63.097 67.017L63.3901 66.8142H63.5789V68.2198H63.3901V67.023L63.097 67.2218V67.017Z" fill="#29313C"/>
<path d="M41.7389 50.6917V53.5029H41.3413V51.0411H40.7068V50.6917H41.7389ZM43.2806 50.6917V53.5029H42.883V51.0411H42.2484V50.6917H43.2806ZM45.6696 52.029C45.8302 52.0906 45.9534 52.179 46.0391 52.2941C46.1248 52.4092 46.1676 52.5471 46.1676 52.7077C46.1676 52.8764 46.1221 53.0237 46.031 53.1495C45.94 53.2727 45.8102 53.3677 45.6415 53.4347C45.4728 53.5016 45.2747 53.5351 45.0471 53.5351C44.8222 53.5351 44.6254 53.5016 44.4567 53.4347C44.2908 53.3677 44.1622 53.2727 44.0712 53.1495C43.9802 53.0237 43.9347 52.8764 43.9347 52.7077C43.9347 52.5471 43.9762 52.4092 44.0592 52.2941C44.1448 52.179 44.268 52.0906 44.4286 52.029C44.3001 51.9675 44.2024 51.8858 44.1355 51.7841C44.0685 51.6823 44.0351 51.5618 44.0351 51.4226C44.0351 51.2673 44.0766 51.1321 44.1596 51.017C44.2452 50.9019 44.3644 50.8135 44.517 50.7519C44.6696 50.6903 44.8463 50.6596 45.0471 50.6596C45.2506 50.6596 45.4286 50.6903 45.5812 50.7519C45.7365 50.8135 45.8557 50.9019 45.9387 51.017C46.0244 51.1321 46.0672 51.2673 46.0672 51.4226C46.0672 51.5592 46.0324 51.6796 45.9628 51.7841C45.8958 51.8858 45.7981 51.9675 45.6696 52.029ZM45.0471 50.9849C44.857 50.9849 44.7071 51.0264 44.5973 51.1094C44.4875 51.1897 44.4327 51.2994 44.4327 51.4387C44.4327 51.5779 44.4862 51.6877 44.5933 51.768C44.7031 51.8483 44.8543 51.8885 45.0471 51.8885C45.2426 51.8885 45.3952 51.8483 45.5049 51.768C45.6174 51.6877 45.6736 51.5779 45.6736 51.4387C45.6736 51.2994 45.6161 51.1897 45.5009 51.1094C45.3885 51.0264 45.2372 50.9849 45.0471 50.9849ZM45.0471 53.2098C45.2693 53.2098 45.4447 53.1642 45.5732 53.0732C45.7017 52.9795 45.766 52.8537 45.766 52.6957C45.766 52.5404 45.7017 52.4186 45.5732 52.3302C45.4447 52.2392 45.2693 52.1937 45.0471 52.1937C44.8249 52.1937 44.6509 52.2392 44.525 52.3302C44.3992 52.4186 44.3363 52.5404 44.3363 52.6957C44.3363 52.8537 44.3992 52.9795 44.525 53.0732C44.6509 53.1642 44.8249 53.2098 45.0471 53.2098ZM46.8988 52.9768C46.9738 52.9768 47.0353 53.0036 47.0835 53.0571C47.1344 53.108 47.1598 53.1723 47.1598 53.2499C47.1598 53.2901 47.1545 53.3289 47.1438 53.3664C47.1357 53.4039 47.1183 53.4614 47.0916 53.5391L46.9028 54.0973H46.6498L46.7984 53.4989C46.7475 53.4802 46.706 53.4494 46.6739 53.4065C46.6444 53.361 46.6297 53.3088 46.6297 53.2499C46.6297 53.1696 46.6552 53.104 46.706 53.0531C46.7569 53.0023 46.8212 52.9768 46.8988 52.9768ZM48.4153 50.6917V53.5029H48.0177V51.0411H47.3832V50.6917H48.4153ZM49.957 50.6917V53.5029H49.5594V51.0411H48.9248V50.6917H49.957Z" fill="#FF0000"/>
<path d="M41.7389 50.6917V53.5029H41.3413V51.0411H40.7068V50.6917H41.7389ZM43.2806 50.6917V53.5029H42.883V51.0411H42.2484V50.6917H43.2806ZM45.6696 52.029C45.8302 52.0906 45.9534 52.179 46.0391 52.2941C46.1248 52.4092 46.1676 52.5471 46.1676 52.7077C46.1676 52.8764 46.1221 53.0237 46.031 53.1495C45.94 53.2727 45.8102 53.3677 45.6415 53.4347C45.4728 53.5016 45.2747 53.5351 45.0471 53.5351C44.8222 53.5351 44.6254 53.5016 44.4567 53.4347C44.2908 53.3677 44.1622 53.2727 44.0712 53.1495C43.9802 53.0237 43.9347 52.8764 43.9347 52.7077C43.9347 52.5471 43.9762 52.4092 44.0592 52.2941C44.1448 52.179 44.268 52.0906 44.4286 52.029C44.3001 51.9675 44.2024 51.8858 44.1355 51.7841C44.0685 51.6823 44.0351 51.5618 44.0351 51.4226C44.0351 51.2673 44.0766 51.1321 44.1596 51.017C44.2452 50.9019 44.3644 50.8135 44.517 50.7519C44.6696 50.6903 44.8463 50.6596 45.0471 50.6596C45.2506 50.6596 45.4286 50.6903 45.5812 50.7519C45.7365 50.8135 45.8557 50.9019 45.9387 51.017C46.0244 51.1321 46.0672 51.2673 46.0672 51.4226C46.0672 51.5592 46.0324 51.6796 45.9628 51.7841C45.8958 51.8858 45.7981 51.9675 45.6696 52.029ZM45.0471 50.9849C44.857 50.9849 44.7071 51.0264 44.5973 51.1094C44.4875 51.1897 44.4327 51.2994 44.4327 51.4387C44.4327 51.5779 44.4862 51.6877 44.5933 51.768C44.7031 51.8483 44.8543 51.8885 45.0471 51.8885C45.2426 51.8885 45.3952 51.8483 45.5049 51.768C45.6174 51.6877 45.6736 51.5779 45.6736 51.4387C45.6736 51.2994 45.6161 51.1897 45.5009 51.1094C45.3885 51.0264 45.2372 50.9849 45.0471 50.9849ZM45.0471 53.2098C45.2693 53.2098 45.4447 53.1642 45.5732 53.0732C45.7017 52.9795 45.766 52.8537 45.766 52.6957C45.766 52.5404 45.7017 52.4186 45.5732 52.3302C45.4447 52.2392 45.2693 52.1937 45.0471 52.1937C44.8249 52.1937 44.6509 52.2392 44.525 52.3302C44.3992 52.4186 44.3363 52.5404 44.3363 52.6957C44.3363 52.8537 44.3992 52.9795 44.525 53.0732C44.6509 53.1642 44.8249 53.2098 45.0471 53.2098ZM46.8988 52.9768C46.9738 52.9768 47.0353 53.0036 47.0835 53.0571C47.1344 53.108 47.1598 53.1723 47.1598 53.2499C47.1598 53.2901 47.1545 53.3289 47.1438 53.3664C47.1357 53.4039 47.1183 53.4614 47.0916 53.5391L46.9028 54.0973H46.6498L46.7984 53.4989C46.7475 53.4802 46.706 53.4494 46.6739 53.4065C46.6444 53.361 46.6297 53.3088 46.6297 53.2499C46.6297 53.1696 46.6552 53.104 46.706 53.0531C46.7569 53.0023 46.8212 52.9768 46.8988 52.9768ZM48.4153 50.6917V53.5029H48.0177V51.0411H47.3832V50.6917H48.4153ZM49.957 50.6917V53.5029H49.5594V51.0411H48.9248V50.6917H49.957Z" fill="#0B1739"/>
<path d="M42.4307 49.0441C42.0358 49.0441 41.7296 48.9387 41.512 48.7278C41.2945 48.5137 41.1824 48.2108 41.1757 47.8192H41.8082C41.8149 48.0501 41.8701 48.2191 41.9739 48.3262C42.0776 48.43 42.2299 48.4819 42.4307 48.4819C42.6382 48.4819 42.7938 48.435 42.8976 48.3413C43.0013 48.2442 43.0532 48.1154 43.0532 47.9548C43.0532 47.8108 43.003 47.692 42.9026 47.5983C42.8056 47.5046 42.66 47.4578 42.4659 47.4578H42.004V46.9256H42.4659C42.6265 46.9256 42.752 46.8838 42.8424 46.8001C42.9327 46.7165 42.9779 46.6077 42.9779 46.4738C42.9779 46.3333 42.9311 46.2195 42.8373 46.1325C42.747 46.0455 42.6114 46.0019 42.4307 46.0019C42.0961 46.0019 41.9137 46.1894 41.8835 46.5642H41.251C41.2577 46.2128 41.3631 45.9384 41.5673 45.7409C41.7748 45.5401 42.0626 45.4397 42.4307 45.4397C42.6248 45.4397 42.7955 45.4648 42.9428 45.515C43.09 45.5619 43.2122 45.6288 43.3092 45.7158C43.4096 45.8028 43.4849 45.9082 43.5351 46.0321C43.5853 46.1525 43.6104 46.2864 43.6104 46.4337C43.6104 46.5943 43.5753 46.7399 43.505 46.8704C43.4347 47.0009 43.326 47.1064 43.1787 47.1867C43.3494 47.2704 43.4766 47.3841 43.5602 47.528C43.6439 47.6686 43.6857 47.8259 43.6857 47.9999C43.6857 48.1539 43.659 48.2961 43.6054 48.4266C43.5519 48.5538 43.4716 48.6643 43.3645 48.758C43.2607 48.8483 43.1302 48.9186 42.9729 48.9688C42.8189 49.019 42.6382 49.0441 42.4307 49.0441ZM45.0717 47.9497H44.8207V48.9989H44.2383V46.4889H44.8207V47.4377H45.0717L45.6741 46.4889H46.3468L45.5536 47.6736L46.4472 48.9989H45.7444L45.0717 47.9497Z" fill="#FF0000"/>
<path d="M42.4307 49.0441C42.0358 49.0441 41.7296 48.9387 41.512 48.7278C41.2945 48.5137 41.1824 48.2108 41.1757 47.8192H41.8082C41.8149 48.0501 41.8701 48.2191 41.9739 48.3262C42.0776 48.43 42.2299 48.4819 42.4307 48.4819C42.6382 48.4819 42.7938 48.435 42.8976 48.3413C43.0013 48.2442 43.0532 48.1154 43.0532 47.9548C43.0532 47.8108 43.003 47.692 42.9026 47.5983C42.8056 47.5046 42.66 47.4578 42.4659 47.4578H42.004V46.9256H42.4659C42.6265 46.9256 42.752 46.8838 42.8424 46.8001C42.9327 46.7165 42.9779 46.6077 42.9779 46.4738C42.9779 46.3333 42.9311 46.2195 42.8373 46.1325C42.747 46.0455 42.6114 46.0019 42.4307 46.0019C42.0961 46.0019 41.9137 46.1894 41.8835 46.5642H41.251C41.2577 46.2128 41.3631 45.9384 41.5673 45.7409C41.7748 45.5401 42.0626 45.4397 42.4307 45.4397C42.6248 45.4397 42.7955 45.4648 42.9428 45.515C43.09 45.5619 43.2122 45.6288 43.3092 45.7158C43.4096 45.8028 43.4849 45.9082 43.5351 46.0321C43.5853 46.1525 43.6104 46.2864 43.6104 46.4337C43.6104 46.5943 43.5753 46.7399 43.505 46.8704C43.4347 47.0009 43.326 47.1064 43.1787 47.1867C43.3494 47.2704 43.4766 47.3841 43.5602 47.528C43.6439 47.6686 43.6857 47.8259 43.6857 47.9999C43.6857 48.1539 43.659 48.2961 43.6054 48.4266C43.5519 48.5538 43.4716 48.6643 43.3645 48.758C43.2607 48.8483 43.1302 48.9186 42.9729 48.9688C42.8189 49.019 42.6382 49.0441 42.4307 49.0441ZM45.0717 47.9497H44.8207V48.9989H44.2383V46.4889H44.8207V47.4377H45.0717L45.6741 46.4889H46.3468L45.5536 47.6736L46.4472 48.9989H45.7444L45.0717 47.9497Z" fill="#0B1739"/>
<path fill-rule="evenodd" clip-rule="evenodd" d="M70.4819 34.0666H58.6868V36.3212H70.4819V34.0666ZM58.8193 36.1886V34.1992H70.3494V36.1886H58.8193Z" fill="#29313C"/>
<path d="M59.8795 35.2602V35.1276H69.4217V35.2602H59.8795Z" fill="#29313C"/>
<path d="M60.2771 34.5971H60.4096V35.9233H60.2771V34.5971Z" fill="#29313C"/>
<path d="M60.8073 34.5971H60.9398V35.9233H60.8073V34.5971Z" fill="#29313C"/>
<path d="M61.4699 34.5971H61.6024V35.9233H61.4699V34.5971Z" fill="#29313C"/>
<path d="M63.0602 34.5971H63.1928V35.9233H63.0602V34.5971Z" fill="#29313C"/>
<path d="M63.988 34.5971H64.1205V35.9233H63.988V34.5971Z" fill="#29313C"/>
<path d="M66.9036 34.5971H67.0362V35.9233H66.9036V34.5971Z" fill="#29313C"/>
<path d="M64.5181 34.5971H64.6506V35.9233H64.5181V34.5971Z" fill="#29313C"/>
<path d="M67.4338 34.5971H67.5663V35.9233H67.4338V34.5971Z" fill="#29313C"/>
<path d="M65.1807 34.5971H65.3133V35.9233H65.1807V34.5971Z" fill="#29313C"/>
<path d="M68.0964 34.5971H68.2289V35.9233H68.0964V34.5971Z" fill="#29313C"/>
<path d="M68.759 34.5971H68.8916V35.9233H68.759V34.5971Z" fill="#29313C"/>
<path d="M62.184 34.6826L62.3121 34.6486L62.662 35.9705L62.5339 36.0044L62.184 34.6826Z" fill="#29313C"/>
<path d="M66.3729 34.6826L66.2448 34.6486L65.8949 35.9705L66.023 36.0044L66.3729 34.6826Z" fill="#29313C"/>
<path fill-rule="evenodd" clip-rule="evenodd" d="M28.275 37.2277V49.0315H30.528V37.2277H28.275ZM30.3954 37.3603V48.8989H28.4075V37.3603H30.3954Z" fill="#29313C"/>
<path d="M29.4677 47.8378H29.3352V38.2887H29.4677L29.4677 47.8378Z" fill="#29313C"/>
<path d="M28.8051 47.44V47.3074H30.1304V47.44H28.8051Z" fill="#29313C"/>
<path d="M28.8051 46.9095V46.7768H30.1304V46.9095H28.8051Z" fill="#29313C"/>
<path d="M28.8051 46.2463V46.1137H30.1304V46.2463H28.8051Z" fill="#29313C"/>
<path d="M28.8051 44.6548V44.5222H30.1304V44.6548H28.8051Z" fill="#29313C"/>
<path d="M28.8051 43.7264V43.5938H30.1304V43.7264H28.8051Z" fill="#29313C"/>
<path d="M28.8051 40.8086V40.676H30.1304V40.8086H28.8051Z" fill="#29313C"/>
<path d="M28.8051 43.1959V43.0633H30.1304V43.1959H28.8051Z" fill="#29313C"/>
<path d="M28.8051 40.2781V40.1454H30.1304V40.2781H28.8051Z" fill="#29313C"/>
<path d="M28.8051 42.5327V42.4001H30.1304V42.5327H28.8051Z" fill="#29313C"/>
<path d="M28.8051 39.615V39.4823H30.1304V39.615H28.8051Z" fill="#29313C"/>
<path d="M28.8051 38.9518V38.8192H30.1304V38.9518H28.8051Z" fill="#29313C"/>
<path d="M28.8905 45.5316L28.8566 45.4034L30.1775 45.0533L30.2114 45.1815L28.8905 45.5316Z" fill="#29313C"/>
<path d="M30.1775 41.8181L30.2114 41.6899L28.8905 41.3397L28.8566 41.4679L30.1775 41.8181Z" fill="#29313C"/>
<path fill-rule="evenodd" clip-rule="evenodd" d="M30.3253 20.6712V27.8331H32.5783V20.6712H30.3253ZM32.4458 27.7004H30.4578V20.8038H32.4458V27.7004Z" fill="#29313C"/>
<path d="M31.5181 27.3026H31.3856V21.467H31.5181V27.3026Z" fill="#29313C"/>
<path d="M30.8554 26.9047V26.7721H32.1807V26.9047H30.8554Z" fill="#29313C"/>
<path d="M30.8554 26.3742V26.2415H32.1807V26.3742H30.8554Z" fill="#29313C"/>
<path d="M30.8554 25.7111V25.5784H32.1807V25.7111H30.8554Z" fill="#29313C"/>
<path d="M30.8554 24.1195V23.9869H32.1807V24.1195H30.8554Z" fill="#29313C"/>
<path d="M30.8554 23.1911V23.0585H32.1807V23.1911H30.8554Z" fill="#29313C"/>
<path d="M30.8554 22.6606V22.528H32.1807V22.6606H30.8554Z" fill="#29313C"/>
<path d="M30.8554 21.9975V21.8649H32.1807V21.9975H30.8554Z" fill="#29313C"/>
<path d="M30.9409 24.9964L30.9069 24.8682L32.2278 24.518L32.2617 24.6462L30.9409 24.9964Z" fill="#29313C"/>
<path fill-rule="evenodd" clip-rule="evenodd" d="M9.51806 27.8331H16.6747V25.5784H9.51806V27.8331ZM16.5422 25.711V27.7004H9.65059V25.711H16.5422Z" fill="#29313C"/>
<path d="M16.1446 26.6394V26.7721H10.3133V26.6394H16.1446Z" fill="#29313C"/>
<path d="M15.747 27.3026H15.6145V25.9763H15.747V27.3026Z" fill="#29313C"/>
<path d="M15.2169 27.3026H15.0843V25.9763H15.2169V27.3026Z" fill="#29313C"/>
<path d="M14.5542 27.3026H14.4217V25.9763H14.5542V27.3026Z" fill="#29313C"/>
<path d="M12.9639 27.3026H12.8313V25.9763H12.9639V27.3026Z" fill="#29313C"/>
<path d="M12.0361 27.3026H11.9036V25.9763H12.0361V27.3026Z" fill="#29313C"/>
<path d="M11.506 27.3026H11.3735V25.9763H11.506V27.3026Z" fill="#29313C"/>
<path d="M10.8434 27.3026H10.7109V25.9763H10.8434V27.3026Z" fill="#29313C"/>
<path d="M13.8401 27.2171L13.712 27.251L13.3621 25.9292L13.4902 25.8952L13.8401 27.2171Z" fill="#29313C"/>
<path fill-rule="evenodd" clip-rule="evenodd" d="M62.9277 13.7746L70.6144 13.7746V11.5199H62.9277V13.7746ZM70.4819 11.6526V13.642L63.0602 13.642V11.6526H70.4819Z" fill="#29313C"/>
<path d="M69.5542 12.5809V12.7136H63.7229V12.5809H69.5542Z" fill="#29313C"/>
<path d="M69.1566 13.2441H69.0241V11.9178H69.1566V13.2441Z" fill="#29313C"/>
<path d="M68.6265 13.2441H68.494V11.9178H68.6265V13.2441Z" fill="#29313C"/>
<path d="M67.9639 13.2441H67.8313V11.9178H67.9639V13.2441Z" fill="#29313C"/>
<path d="M66.3735 13.2441H66.2409V11.9178H66.3735V13.2441Z" fill="#29313C"/>
<path d="M65.4458 13.2441H65.3133V11.9178H65.4458V13.2441Z" fill="#29313C"/>
<path d="M64.9156 13.2441H64.7831V11.9178H64.9156V13.2441Z" fill="#29313C"/>
<path d="M64.2531 13.2441H64.1205V11.9178H64.2531V13.2441Z" fill="#29313C"/>
<path d="M67.2497 13.1586L67.1216 13.1925L66.7717 11.8707L66.8998 11.8367L67.2497 13.1586Z" fill="#29313C"/>
<path fill-rule="evenodd" clip-rule="evenodd" d="M70.7502 20.089V13.642H68.4972V20.089H70.7502ZM68.6298 19.9564V13.7746H70.6177V19.9564H68.6298Z" fill="#29313C"/>
<path d="M69.5575 14.5205H69.69V19.4328H69.5575V14.5205Z" fill="#29313C"/>
<path d="M70.2201 14.8539V14.9866H68.8948V14.8539H70.2201Z" fill="#29313C"/>
<path d="M70.2201 15.2986V15.4312H68.8948V15.2986H70.2201Z" fill="#29313C"/>
<path d="M70.2201 15.8544V15.987H68.8948V15.8544H70.2201Z" fill="#29313C"/>
<path d="M70.2201 17.1882V17.3209H68.8948V17.1882H70.2201Z" fill="#29313C"/>
<path d="M70.2201 17.9663V18.099H68.8948V17.9663H70.2201Z" fill="#29313C"/>
<path d="M70.2201 18.4109V18.5436H68.8948V18.4109H70.2201Z" fill="#29313C"/>
<path d="M70.2201 18.9667V19.0994H68.8948V18.9667H70.2201Z" fill="#29313C"/>
<path d="M70.1379 16.4529L70.1666 16.5824L68.8445 16.8761L68.8157 16.7467L70.1379 16.4529Z" fill="#29313C"/>
<path fill-rule="evenodd" clip-rule="evenodd" d="M62.7952 21.2017H59.2169V23.0585H62.7952V21.2017ZM59.3494 22.9259V21.3343H62.6626V22.9259H59.3494Z" fill="#29313C"/>
<path fill-rule="evenodd" clip-rule="evenodd" d="M51.6626 37.9128H41.8554V39.6369H51.6626V37.9128ZM51.5301 39.5043H41.9879V38.0454H51.5301V39.5043Z" fill="#29313C"/>
<path fill-rule="evenodd" clip-rule="evenodd" d="M50.735 38.4433H42.6506V39.1064H50.735V38.4433ZM50.6024 38.9738H42.7832V38.5759H50.6024V38.9738Z" fill="#29313C"/>
<path fill-rule="evenodd" clip-rule="evenodd" d="M38.176 38.4477L34.9066 39.9047L36.146 42.6909L39.4154 41.234L38.176 38.4477ZM39.2404 41.1668L36.2132 42.5158L35.0816 39.9719L38.1088 38.6229L39.2404 41.1668Z" fill="#29313C"/>
<path fill-rule="evenodd" clip-rule="evenodd" d="M38.176 38.4477L34.9066 39.9047L36.146 42.6909L39.4154 41.234L38.176 38.4477ZM39.2404 41.1668L36.2132 42.5158L35.0816 39.9719L38.1088 38.6229L39.2404 41.1668Z" fill="#29313C"/>
<path fill-rule="evenodd" clip-rule="evenodd" d="M38.7814 38.178L34.3012 40.1745L35.5406 42.9607L40.0207 40.9642L38.7814 38.178ZM39.8457 40.897L35.6078 42.7856L34.4762 40.2417L38.7142 38.3531L39.8457 40.897Z" fill="#29313C"/>
<path fill-rule="evenodd" clip-rule="evenodd" d="M38.1757 38.4477L34.9066 39.9045L35.3376 40.8735L38.6067 39.4167L38.1757 38.4477ZM38.4318 39.3496L35.4048 40.6984L35.0815 39.9717L38.1085 38.6228L38.4318 39.3496Z" fill="#29313C"/>
<path fill-rule="evenodd" clip-rule="evenodd" d="M42.5181 59.1331H46.0964V56.0827H42.5181V59.1331ZM45.9638 56.2153V59.0005H42.6506V56.2153H45.9638Z" fill="#29313C"/>
<path fill-rule="evenodd" clip-rule="evenodd" d="M42.5181 59.1331H46.0964V56.0827H42.5181V59.1331ZM45.9638 56.2153V59.0005H42.6506V56.2153H45.9638Z" fill="#29313C"/>
<path fill-rule="evenodd" clip-rule="evenodd" d="M41.8554 59.1331H46.759V56.0827H41.8554V59.1331ZM46.6265 56.2153V59.0005H41.988V56.2153H46.6265Z" fill="#29313C"/>
<path fill-rule="evenodd" clip-rule="evenodd" d="M42.5181 59.1331H46.0964V58.0721H42.5181V59.1331ZM45.9638 58.2047V59.0005H42.6506V58.2047H45.9638Z" fill="#29313C"/>
<path fill-rule="evenodd" clip-rule="evenodd" d="M33.241 52.5018V56.0827H36.2892V52.5018H33.241ZM36.1566 55.9501H33.3735V52.6344H36.1566V55.9501Z" fill="#29313C"/>
<path fill-rule="evenodd" clip-rule="evenodd" d="M33.241 49.0535V52.6344H36.2892V49.0535H33.241ZM36.1566 52.5018H33.3735V49.1861H36.1566V52.5018Z" fill="#29313C"/>
<path fill-rule="evenodd" clip-rule="evenodd" d="M33.241 45.6051V49.1861H36.2892V45.6051H33.241ZM36.1566 49.0534H33.3735V45.7378H36.1566V49.0534Z" fill="#29313C"/>
<path fill-rule="evenodd" clip-rule="evenodd" d="M33.241 45.6052V56.0827H36.2892V45.6052H33.241ZM36.1566 55.9501H33.3735V45.7378H36.1566V55.9501Z" fill="#29313C"/>
<path fill-rule="evenodd" clip-rule="evenodd" d="M33.241 44.942V56.7458H36.2892V44.942H33.241ZM36.1566 56.6132H33.3735V45.0746H36.1566V56.6132Z" fill="#29313C"/>
<path fill-rule="evenodd" clip-rule="evenodd" d="M33.241 52.5018V56.0827H34.3012V52.5018H33.241ZM34.1687 55.9501H33.3735V52.6344H34.1687V55.9501Z" fill="#29313C"/>
<path fill-rule="evenodd" clip-rule="evenodd" d="M33.241 49.0535V52.6344H34.3012V49.0535H33.241ZM34.1687 52.5018H33.3735V49.1861H34.1687V52.5018Z" fill="#29313C"/>
<path fill-rule="evenodd" clip-rule="evenodd" d="M33.241 45.6051V49.1861H34.3012V45.6051H33.241ZM34.1687 49.0534H33.3735V45.7378H34.1687V49.0534Z" fill="#29313C"/>
<path fill-rule="evenodd" clip-rule="evenodd" d="M55.7048 53.0986C55.7048 54.7833 57.0696 56.149 58.753 56.149C60.4365 56.149 61.8012 54.7833 61.8012 53.0986C61.8012 51.4139 60.4365 50.0482 58.753 50.0482C57.0696 50.0482 55.7048 51.4139 55.7048 53.0986ZM61.6687 53.0986C61.6687 54.71 60.3633 56.0164 58.753 56.0164C57.1428 56.0164 55.8374 54.71 55.8374 53.0986C55.8374 51.4871 57.1428 50.1808 58.753 50.1808C60.3633 50.1808 61.6687 51.4871 61.6687 53.0986Z" fill="#29313C"/>
<path fill-rule="evenodd" clip-rule="evenodd" d="M63.0914 49.3874L61.566 47.9133L60.2772 49.2489L61.8025 50.723L63.0914 49.3874ZM61.7992 50.5355L60.4646 49.2457L61.5693 48.1008L62.904 49.3907L61.7992 50.5355Z" fill="#29313C"/>
<path fill-rule="evenodd" clip-rule="evenodd" d="M63.2644 56.1293L61.739 57.6034L60.5422 56.3632L61.9722 54.9812L61.9722 54.9812L61.9722 54.9812L62.0676 54.8891L63.2644 56.1293ZM61.9722 54.9812L62.1596 54.9845L62.0643 55.0766L61.9722 54.9812L61.9722 54.9812ZM60.7296 56.3664L62.0643 55.0766L63.077 56.126L61.7423 57.4159L60.7296 56.3664Z" fill="#29313C"/>
<path fill-rule="evenodd" clip-rule="evenodd" d="M63.988 53.9607V51.8386H62.2651V53.9607H63.988ZM62.3976 51.9713H63.8554V53.828H62.3976V51.9713Z" fill="#29313C"/>
<path fill-rule="evenodd" clip-rule="evenodd" d="M53.1205 54.516L54.0498 56.423L55.7308 55.6024L54.8015 53.6954L53.1205 54.516ZM54.7405 53.8728L55.5536 55.5414L54.1109 56.2457L53.2977 54.5771L54.7405 53.8728Z" fill="#29313C"/>
<path fill-rule="evenodd" clip-rule="evenodd" d="M33.506 16.825V18.9471H35.376V16.825H33.506ZM35.2435 16.9576V18.8144H33.6386V16.9576H35.2435Z" fill="#29313C"/>
<path fill-rule="evenodd" clip-rule="evenodd" d="M33.506 13.1115V15.2335H35.376V13.1115H33.506ZM35.2435 13.2441V15.1009H33.6386V13.2441H35.2435Z" fill="#29313C"/>
<path fill-rule="evenodd" clip-rule="evenodd" d="M56.996 58.1818L59.096 58.4773L59.3172 56.9014L57.2172 56.6059L56.996 58.1818ZM59.1675 57.0143L58.9832 58.3275L57.1457 58.0689L57.33 56.7557L59.1675 57.0143Z" fill="#29313C"/>
<path fill-rule="evenodd" clip-rule="evenodd" d="M12.6988 58.0721H9.51807V60.3268H12.6988V58.0721ZM9.6506 60.1941V58.2047H12.5663V60.1941H9.6506Z" fill="#29313C"/>
<path fill-rule="evenodd" clip-rule="evenodd" d="M48.4819 16.6924V22.6606H50.7349V16.6924H48.4819ZM50.6024 22.528H48.6145V16.825H50.6024V22.528Z" fill="#29313C"/>
<path fill-rule="evenodd" clip-rule="evenodd" d="M12.6988 11.5199H9.51807V13.7746H12.6988V11.5199ZM9.6506 13.642V11.6526H12.5663V13.642H9.6506Z" fill="#29313C"/>
<path fill-rule="evenodd" clip-rule="evenodd" d="M30.5904 58.0721H23.6988V60.3268H30.5904V58.0721ZM23.8313 60.1941V58.2047H30.4578V60.1941H23.8313Z" fill="#29313C"/>
<path fill-rule="evenodd" clip-rule="evenodd" d="M29.6626 11.5199H23.6988V13.7746H29.6626V11.5199ZM23.8313 13.642V11.6526H29.5301V13.642H23.8313Z" fill="#29313C"/>
<path fill-rule="evenodd" clip-rule="evenodd" d="M22.241 49.9818H14.2892V60.3268H22.241V49.9818ZM14.4217 60.1941V50.1145H22.1085V60.1941H14.4217Z" fill="#29313C"/>
<path fill-rule="evenodd" clip-rule="evenodd" d="M17.8675 57.9395H14.8193V59.9289H17.8675V57.9395ZM17.7349 59.7963H14.9518V58.0721H17.7349V59.7963Z" fill="#29313C"/>
<path fill-rule="evenodd" clip-rule="evenodd" d="M21.5783 57.9395H18.5302V59.9289H21.5783V57.9395ZM18.6627 59.7963V58.0721H21.4458V59.7963H18.6627Z" fill="#29313C"/>
<path fill-rule="evenodd" clip-rule="evenodd" d="M22.241 49.9818H14.2892V57.2763H22.241V49.9818ZM14.4217 57.1437V50.1145H22.1085V57.1437H14.4217Z" fill="#29313C"/>
<path fill-rule="evenodd" clip-rule="evenodd" d="M22.241 49.9818H14.2892V55.9501H22.241V49.9818ZM14.4217 55.8174V50.1145H22.1085V55.8174H14.4217Z" fill="#29313C"/>
<path fill-rule="evenodd" clip-rule="evenodd" d="M22.241 21.8649H14.2892V11.5199H22.241V21.8649ZM14.4217 11.6526V21.7322H22.1085V11.6526H14.4217Z" fill="#29313C"/>
<path fill-rule="evenodd" clip-rule="evenodd" d="M17.8675 13.9072H14.8193V11.9178H17.8675V13.9072ZM14.9518 12.0504V13.7746H17.7349V12.0504H14.9518Z" fill="#29313C"/>
<path fill-rule="evenodd" clip-rule="evenodd" d="M21.5783 13.9072H18.5302V11.9178H21.5783V13.9072ZM18.6627 12.0504V13.7746H21.4458V12.0504H18.6627Z" fill="#29313C"/>
<path fill-rule="evenodd" clip-rule="evenodd" d="M22.241 21.8649H14.2892V14.5704H22.241V21.8649ZM14.4217 14.703V21.7322H22.1085V14.703H14.4217Z" fill="#29313C"/>
<path fill-rule="evenodd" clip-rule="evenodd" d="M22.241 21.8649H14.2892V15.8966H22.241V21.8649ZM14.4217 16.0293V21.7322H22.1085V16.0293H14.4217Z" fill="#29313C"/>
<path fill-rule="evenodd" clip-rule="evenodd" d="M40.3976 27.8331V23.589H50.7349V27.8331H40.3976ZM50.6024 23.7216H40.5301V27.7005H50.6024V23.7216Z" fill="#29313C"/>
<path fill-rule="evenodd" clip-rule="evenodd" d="M48.3494 27.1699V24.1195H50.3374V27.1699H48.3494ZM50.2048 24.2521H48.482V27.0373H50.2048V24.2521Z" fill="#29313C"/>
<path fill-rule="evenodd" clip-rule="evenodd" d="M40.3976 27.8331V23.589H47.6867V27.8331H40.3976ZM47.5542 23.7216H40.5301V27.7005H47.5542V23.7216Z" fill="#29313C"/>
<path fill-rule="evenodd" clip-rule="evenodd" d="M40.3976 27.8331V23.589H46.3614V27.8331H40.3976ZM46.2289 23.7216H40.5301V27.7005H46.2289V23.7216Z" fill="#29313C"/>
<path fill-rule="evenodd" clip-rule="evenodd" d="M40.3976 15.764V11.5199H50.7349V15.764H40.3976ZM50.6024 11.6526H40.5301V15.6314H50.6024V11.6526Z" fill="#29313C"/>
<path fill-rule="evenodd" clip-rule="evenodd" d="M48.3494 15.1009V12.0504H50.3374V15.1009H48.3494ZM50.2048 12.1831H48.482V14.9682H50.2048V12.1831Z" fill="#29313C"/>
<path fill-rule="evenodd" clip-rule="evenodd" d="M40.3976 15.764V11.5199H47.6867V15.764H40.3976ZM47.5542 11.6526H40.5301V15.6314H47.5542V11.6526Z" fill="#29313C"/>
<path fill-rule="evenodd" clip-rule="evenodd" d="M40.3976 15.764V11.5199H46.3614V15.764H40.3976ZM46.2289 11.6526H40.5301V15.6314H46.2289V11.6526Z" fill="#29313C"/>
<path fill-rule="evenodd" clip-rule="evenodd" d="M33.6386 11.5199H30.3253V20.1407H33.6386V11.5199ZM30.4578 20.0081V11.6526H33.506V20.0081H30.4578Z" fill="#29313C"/>
<path fill-rule="evenodd" clip-rule="evenodd" d="M14.8836 43.475H12.7631V45.3463H14.8836V43.475ZM14.7511 45.2137H12.8957V43.6076H14.7511V45.2137Z" fill="#29313C"/>
<path fill-rule="evenodd" clip-rule="evenodd" d="M18.0716 43.6149V40.2992H9.45714V43.6149H18.0716ZM9.58967 43.4823V40.4319H17.9391V43.4823H9.58967Z" fill="#29313C"/>
<path fill-rule="evenodd" clip-rule="evenodd" d="M71.0121 37.3823H58.6868V40.5653H71.0121V37.3823ZM58.8193 40.4327V37.5149H70.8795V40.4327H58.8193Z" fill="#29313C"/>
</svg>
