<?xml version="1.0" encoding="utf-8"?><svg viewBox="0 0 10 16" xmlns="http://www.w3.org/2000/svg" xmlns:xlink="http://www.w3.org/1999/xlink"><style>:root>svg{display:none}:root>svg:target{display:block}</style><svg viewBox="0 0 7 4" id="arrow-bottom" xmlns="http://www.w3.org/2000/svg"><g opacity=".4" fill-rule="evenodd" clip-rule="evenodd"><path d="M2.823 3.747A.846.846 0 003.43 4c.229 0 .444-.09.605-.253L6.69.987a.583.583 0 000-.817.566.566 0 00-.808 0L3.43 2.725.976.17a.566.566 0 00-.808 0 .583.583 0 000 .817l2.655 2.76z"/><path d="M2.823 3.747A.846.846 0 003.43 4c.229 0 .444-.09.605-.253L6.69.987a.583.583 0 000-.817.566.566 0 00-.808 0L3.43 2.725.976.17a.566.566 0 00-.808 0 .583.583 0 000 .817l2.655 2.76z"/></g></svg><svg viewBox="0 0 7 4" id="arrow-top" xmlns="http://www.w3.org/2000/svg"><g opacity=".4" fill-rule="evenodd" clip-rule="evenodd"><path d="M4.034.253A.846.846 0 003.428 0c-.229 0-.444.09-.605.253L.168 3.013a.583.583 0 000 .817.566.566 0 00.807 0l2.453-2.555L5.882 3.83a.566.566 0 00.808 0 .583.583 0 000-.817L4.034.253z"/><path d="M4.034.253A.846.846 0 003.428 0c-.229 0-.444.09-.605.253L.168 3.013a.583.583 0 000 .817.566.566 0 00.807 0l2.453-2.555L5.882 3.83a.566.566 0 00.808 0 .583.583 0 000-.817L4.034.253z"/></g></svg><svg fill="none" viewBox="0 0 8 8" id="close" xmlns="http://www.w3.org/2000/svg"><path fill-rule="evenodd" clip-rule="evenodd" d="M4 5.222L1.377 7.845c-.255.255-.735.188-1.073-.15-.337-.337-.404-.817-.149-1.072L2.778 4 .155 1.377C-.1 1.122-.033.642.305.304.641-.033 1.121-.1 1.376.155L4 2.778 6.623.155c.255-.255.735-.188 1.073.15.337.337.404.817.149 1.072L5.222 4l2.623 2.623c.255.255.188.735-.15 1.073-.337.337-.817.404-1.072.149L4 5.222z" fill="red"/><path fill-rule="evenodd" clip-rule="evenodd" d="M4 5.222L1.377 7.845c-.255.255-.735.188-1.073-.15-.337-.337-.404-.817-.149-1.072L2.778 4 .155 1.377C-.1 1.122-.033.642.305.304.641-.033 1.121-.1 1.376.155L4 2.778 6.623.155c.255-.255.735-.188 1.073.15.337.337.404.817.149 1.072L5.222 4l2.623 2.623c.255.255.188.735-.15 1.073-.337.337-.817.404-1.072.149L4 5.222z" fill="#0B1739"/></svg><svg fill="none" viewBox="0 0 10 16" id="scroll-top" xmlns="http://www.w3.org/2000/svg"><path d="M5 14.003v-12m0 0l4 4m-4-4l-4 4" stroke="#fff" stroke-width="2" stroke-linecap="round"/></svg></svg>